<?xml version="1.0" encoding="utf-8"?>
<!-- Generator: Adobe Illustrator 16.0.0, SVG Export Plug-In . SVG Version: 6.00 Build 0)  -->
<!DOCTYPE svg PUBLIC "-//W3C//DTD SVG 1.1//EN" "http://www.w3.org/Graphics/SVG/1.1/DTD/svg11.dtd">
<svg version="1.1" id="Layer_1" xmlns="http://www.w3.org/2000/svg" xmlns:xlink="http://www.w3.org/1999/xlink" x="0px" y="0px"
	 width="1280px" height="800px" viewBox="0 0 1280 800" enable-background="new 0 0 1280 800" xml:space="preserve">
<path d="M179.304,576.504c-0.842-1.563-1.673-3.132-2.493-4.707c0.365,1.175,0.733,2.354,1.222,3.458
	C178.254,575.752,178.745,576.131,179.304,576.504z"/>
<path d="M348.817,779.865c-0.8,0.916-1.727,1.999-2.793,2.881c-3.342,2.781-7.693,7.511-10.669,2.015
	c-1.994-3.68-0.394-10.125-0.394-15.338c2.022,0.117,4.493-0.599,5.981,0.533c0.463,0.35,0.898,0.75,1.348,1.149
	c-8.311-11.558-15.962-23.681-22.56-36.656c-4.366-8.576-8.732-17.204-13.042-25.93c-5.953-3.748-11.273-9.094-17.225-12.791
	c-2.148-1.332-3.454-4.43-1.91-9.509c1.306-4.264-2.752-10.826-4.436-16.355c-0.604,0.167-1.222,0.333-1.825,0.517
	c-0.505,6.645-1.011,13.29-1.6,20.917c-3.117-0.499-6.289-0.266-8.83-1.666c-1.685-0.916-3.426-4.13-3.468-6.379
	c-0.112-5.778-0.225-11.991,1.432-17.254c1.348-4.296,4.9-9.776,8.1-10.424c2.26-0.467,5.63,2.481,8.016,5.562
	c-9.069-21.85-16.86-44.367-22.111-67.782c-6.486-28.946-11.021-59.156-14.543-88.834c-3.622-30.677-4.521-61.154-2.204-92.048
	c1.643-21.982,6.752-43.167,13.168-63.985c-5.798,7.178-12.958,11.108-21.69,7.377c-4.632-1.965-6.064-7.062-4.197-12.224
	c5.194-14.373,6.149-28.662,14.446-41.385c7.286-11.159,1.432-30.511,0.898-43.367c-0.07-1.433-0.14-2.866-0.224-4.264
	c-0.562,0.633-1.165,1.298-1.825,2.064c0-4.496-0.772-7.644,0.182-8.81c0.281-0.332,0.632-0.599,1.025-0.815
	c-0.631-6.045-1.67-11.975-3.454-17.987c-1.305-4.396-3.13-10.892-6.148-15.272c-4.015,2.281-4.253,1.683-7.524-5.313
	c-2.177-1.383-3.145-3.881-3.131-6.479c-10.726-21.133-25.774-35.223-46.637-40.236c-4.534-1.082-8.928-4.248-13.378-4.248
	c-5.138-0.016-10.866,1.2-15.316,4.064c-10.753,6.928-20.482,6.896-31.053-0.7c-10.234-7.328-21.872-3.231-32.948-2.897
	c-0.436,0-1.741,5.279-0.983,7.195c2.639,6.778,6.374,12.957,8.957,19.769c1.404,3.713,2.345,8.427,1.755,12.341
	c-4.506,29.894-3.944,58.722,7.624,86.919c2.906,7.111,2.246,17.52,0.673,25.714c-3.945,20.45-16.313,34.591-29.172,47.681
	c-0.042,0.033-0.07,0.083-0.112,0.116c-3.215,13.107-7.819,21.851-14.235,24.981c-1.432,0.7-2.793,2.731-4.197,2.731
	c-1.628,0-3.439-0.766-4.872-2.614c-0.463-0.6-0.913-1.116-1.361-1.532c-3.243,3.013-6.458,6.028-9.659,9.093
	c-4.408,4.23-6.864,0.683-10.107-2.482c-10.206-9.992-20.721-19.535-31.11-29.245v36.64c9.49,9.427,13.435,25.314,9.111,38.754
	c-2.667,8.344-6.05,16.371-9.111,24.532v44.967c6.57-5.262,11.54-3.548,16.79,3.531c5.995,8.078,13.941,13.307,22.631,16.454
	c0.533-0.716,1.066-1.432,1.601-2.165c-2.12-1.949-4.437-3.665-6.317-5.896c-14.208-17.021-13.744-40.32,0.997-53.859
	c13.28-12.208,41.119-7.562,50.061,9.06c2.05,3.796,2.415,10.009,1.559,14.588c-1.124,5.913-5.827,8.078-10.993,8.278
	c-7.482,0.266-13.786-2.315-18.503-9.526c-1.095-1.682-2.442-3.131-3.678-4.681c-0.758,0.383-1.516,0.75-2.274,1.117
	c1.305,4.164,1.923,8.91,4.043,12.374c11.891,19.436,28.751,24.715,47.773,21.267c6.542-1.182,12.129-0.748,18.306,2.083
	c8.185,3.731,16.889,5.862,27.109,9.276c-4.745,2.565-8.241,4.314-11.61,6.345c-5.194,3.115-10.641,5.846-15.358,9.81
	c-4.647,3.897-9.139,5.047-14.446,3.063c-25.382-9.409-40.305,9.794-48.686,32.676c-0.73,2.015-0.575,4.479-0.828,6.729
	c1.109,1,2.218,1.999,3.341,2.998c1.446-3.064,2.527-6.462,4.408-9.094c4.773-6.728,10.711-10.692,18.503-8.976
	c8.76,1.931,12.087,10.259,7.819,19.585c-8.718,19.052-23.08,26.914-41.204,22.567c-9.448-2.266-17.703-13.524-18.573-25.215
	c-1.179-15.888,1.811-30.743,8.199-44.8c-0.52-0.65-1.039-1.315-1.559-1.965c-5.264,4.946-10.557,9.843-15.765,14.873
	c-0.884,0.833-1.417,2.182-2.078,3.331c-7.932,14.072-7.918,14.072-21.269,9.458v41.636c8.17,5.746,13.365,12.391,15.92,22.383
	c-2.611-3.298-5.208-6.595-7.819-9.893c-0.477,0.283-0.955,0.567-1.446,0.866c2.681,5.646,5.096,11.508,8.1,16.904
	c8.059,14.506,7.062,32.059-3.088,44.9c-3.65,4.629-7.764,8.76-11.667,13.106v23.316c16.537-3.614,27.389-17.037,37.582-31.26
	c7.426-10.358,7.23-10.658,16.369-2.697c4.52,3.931,8.774,8.26,13.309,12.157c4.099,3.498,4.38,11.509,10.585,12.391
	c-0.436,3.798-0.885,7.594-1.39,11.941c8.507-0.648,7.019,4.847,5.615,12.84c-0.983,5.68-4.001,13.59,2.597,19.52
	c0.871-1.75,1.264-3.465,2.218-4.248c1.951-1.615,4.226-3.763,6.331-3.697c1.573,0.033,3.776,2.897,4.45,5.046
	c1.109,3.563,1.657,7.561,1.615,11.375c-0.071,6.329-2.78,9.409-8.578,8.861c-2.962-0.284-6.037,1.215-9.069,1.882
	c-1.32,0.283-2.793,1.049-3.959,0.649c-10.487-3.664-13.028-2.265-17.604,10.059c-0.337,0.883-0.983,1.615-1.474,2.416
	c-0.716-0.167-1.432-0.334-2.134-0.517c0.406-2.998,0.87-5.996,1.221-9.01c0.394-3.414,1.67-9.359,0.843-9.809
	c-3.692-2.032-8.788-4.664-11.891-3.047c-5.11,2.665-8.522,1.999-12.846-1.233c-4.787-3.547-10.389-0.166-12.438,5.929
	c-0.884,2.599-3.412,6.129-5.237,6.162c-2.723,0.05-5.601-2.398-8.212-4.197c-2.751-1.932-5.278-4.347-7.904-6.545V800
	c120.663-0.083,241.324-0.183,363.516-0.283C359.445,793.271,354.025,786.66,348.817,779.865z M32.429,776.451
	c-0.982-2.081-1.586-4.396-2.316-6.645c1.166-0.417,2.316-0.833,3.468-1.25c0.631,2.398,1.249,4.796,1.881,7.194
	C34.408,776.018,32.583,776.784,32.429,776.451z M115.271,443.632c-11.554-17.436-26.702-28.145-44.685-33.825
	c-5.405-1.715-11.68-2.082-14.712-9.726c-2.162-5.445-1.937-9.375,2.625-12.657c4.197-3.03,8.17-6.461,12.325-9.576
	c21.591-16.254,45.457-29.162,59.005-57.34c1.025,0.232,2.063,0.466,3.088,0.699c0,5.413-0.056,10.808,0.028,16.204
	c0.028,2.232,0.365,4.447,0.548,6.663c1.488-1.683,3.833-3.082,4.281-5.097c1.882-8.293,3.454-16.705,4.591-25.198
	c0.786-5.846,2.485-8.127,7.848-6.828c13.547,3.314,25.129-1.532,33.791-14.257c9.574-14.072,11.666-29.993,5.952-46.915
	c-3.58-10.625-11.526-14.156-20.173-15.405c-5.7-0.833-11.049,0.916-15.148,8.943c3.327,0.283,5.7,0.417,8.072,0.683
	c9.673,1.066,13.772,7.627,11.764,18.753c-2.274,12.507-7.132,19.102-15.077,20.435c-9.14,1.515-18.419-3.714-22.561-14.389
	c-7.539-19.486-8.887-39.837,1.699-57.974c10.487-17.97,27.095-23.982,44.671-21.15c17.688,2.864,29.242,16.671,34.787,36.672
	c2.695,9.693,5.813,20.069,5.321,29.912c-0.463,9.259,2.331,18.036,0.983,26.979c-0.394,2.647-2.429,4.947-4.072,8.094
	c6.122,3.865,2.415,11.675,2.148,19.602c-4.408,1.349-8.984,2.765-13.969,4.314c-0.379,1.599-1.375,4.13-1.432,6.678
	c-0.056,2.199,0.618,4.681,1.615,6.562c1.137,2.148,2.976,3.781,4.507,5.646c-1.923,2.182-3.693,4.63-5.827,6.461
	c-1.432,1.216-3.383,1.566-6.261,2.798c4.394,3.864,8.143,7.161,12.845,11.291c-9.223-2.581-14.417-0.417-14.88,6.729
	c-0.183,2.682,4.113,5.746,7.398,8.261c-2.064,11.175-8.115,20.452-16.467,28.729c-1.362,2.132-2.752,4.247-4.085,6.412
	c-0.618,0.999-1.235,2.066-1.881,3.148c-0.155,0.399-0.365,0.816-0.632,1.216c-0.141,0.2-0.295,0.383-0.449,0.566
	c-0.379,0.616-0.758,1.215-1.166,1.782l-0.463,2.098c-0.323-0.083-0.646-0.167-0.968-0.233c-0.45,0.533-0.927,1.05-1.432,1.5
	c-0.435,0.399-0.898,0.766-1.362,1.115c-0.421,0.783-0.87,1.849-1.53,2.748c-0.323,0.416-0.632,0.733-1.024,1.049
	c0,0,0,0-0.015,0.017c-0.014,0-0.028,0.016-0.056,0.033c-0.014,0.017-0.014,0.017-0.028,0.017c-0.028,0.033-0.056,0.067-0.099,0.083
	c-0.379,0.267-1.151,0.817-1.474,1.05c-0.014,0-0.014,0-0.014,0c-0.239,0.167-0.491,0.299-0.73,0.433
	c-7.609,6.162-14.558,12.191-21.984,17.204c-7.286,4.93-15.274,8.361-22.925,12.541
	C122.641,449.896,118.725,448.862,115.271,443.632z M146.184,513.681c-6.107-5.596-11.526-10.226-16.608-15.305
	c-3.973-3.981-4.422-8.377,0.436-12.141c2.92-2.249,5.77-4.713,8.886-6.479c8.016-4.479,16.145-8.643,24.245-12.907
	c1.699-0.9,3.397-2.314,5.152-2.448c1.783-0.133,3.636,1.032,5.447,1.632c-0.856,1.715-1.558,3.58-2.611,5.112
	c-2.092,3.031-4.366,5.879-7.764,10.376h10.234c-5.432,8.16-10.866,16.321-16.902,25.381
	C153.119,507.252,146.591,499.858,146.184,513.681z M137.059,551.019c5.77-7.061,12.915-12.624,19.78-18.287
	c1.25-1.032,4.1,0.75,6.22,1.183c2.372,0.483,4.759,0.9,7.146,1.35c0.351-0.683,0.702-1.366,1.053-2.049
	c-11.385-4.896-0.533-14.006-3.636-20.602c7.075,6.295,6.682,16.504,9.405,26.147c4.408-3.547,4.802-13.606,11.863-9.876
	c2.162,1.117,3.538,4.297,5.826,7.245c-4.548,1.249-7.665,2.115-12.312,3.397c3.917,2.215,6.261,3.547,8.55,4.863
	c2.78-2.248,5.419-4.38,8.17-6.611c3.116,9.493-0.168,15.072-7.567,13.773c-4.548,4.164,5.265,20.751-9.897,16.587
	c-1.741,7.245,2.162,17.12-6.219,23.033c-1.853,1.298-1.839,6.361-3.075,11.208c-11.918-9.576-26.996-12.258-34.113-28.979
	c-0.422-0.981-0.997-1.897-1.587-2.748C129.955,560.896,129.45,560.313,137.059,551.019z M152.656,788.092
	c-1.488-1.199-2.822-1.666-3.201-2.665c-3.875-10.142-9.196-12.041-16.931-6.262c-1.572,1.166-3.931,0.8-5.882,1.35
	c-1.924,0.549-3.776,1.383-6.135,2.265c4.043-10.975,15.021-15.822,25.073-11.792C151.715,773.437,154.508,779.449,152.656,788.092z
	 M204.795,791.123c-0.436,4.797-2.359,5.497-5.672,4.181c-4.745-1.899-9.504-3.765-14.025-5.546c-0.744-2.165-1.572-4.58-2.4-6.995
	c-2.373,1.899-4.759,3.814-7.623,6.096c-0.478-2.381-1.039-5.247-1.615-8.111c-4.914-24.548-16.032-35.689-37.272-37.355
	c-11.526-0.917-11.891-1.683-13.758-15.489c-1.109-8.126-3.271-16.038-4.956-24.048l-2.457,0.516
	c-0.547,2.232-1.081,4.48-1.965,8.161c-7.188-4.779-14.179-8.743-20.524-13.84c-10.599-8.526-20.89-17.619-31.04-26.863
	c-2.877-2.614-6.626-6.428-6.865-9.992c-0.421-6.379,3.341-10.841,8.873-13.24c13.281-5.762,25.69-13.407,35.153-26.381
	c3.818-5.229,7.524-10.608,11.119-16.071c2.906-4.43,6.303-5.646,10.36-2.648c13.856,10.209,28.203,19.685,41.245,31.21
	c5.503,4.863,8.241,14.14,12.214,21.418c1.361,2.498,0.954,8.444,5.91,3.997c0.351-0.316,3.229,2.465,4.324,4.313
	c10.009,16.788,15.961,35.591,19.542,55.592C207.588,743.642,207.014,767.341,204.795,791.123z M220.336,631.959
	c-1.109,2.414-6.177,4.229-8.816,3.38c-8.845-2.798-14.812-9.993-17.464-20.584c-1.587-6.346,1.292-9.243,6.725-10.51
	c-3.622-5.896-0.66-8.427,2.892-7.86c2.948,0.466,6.163,3.331,8.156,6.212c3.481,5.012,6.809,10.509,8.845,16.454
	C221.95,622.833,221.908,628.495,220.336,631.959z M224.772,447.963c-2.639,1.033-8.241,3.83-8.507-5.013
	c4.058-2.048,10.445,3.03,9.996-7.628C230.696,441.784,229.222,446.23,224.772,447.963z M296.341,775.869
	c-1.039,5.196-0.898,9.26-2.499,10.925c-1.277,1.298-4.815,0.066-7.146-0.817c-1.375-0.516-2.176-3.164-3.566-3.763
	c-7.763-3.315-7.806-3.199-7.215-12.674c-7.258,1.999-9.841,9.593-12.803,15.139c-4.689,8.727-7.988,10.908-16.088,6.395
	c-1.109-0.616-2.682-0.167-4.029-0.049c-0.871,0.065-1.769,0.749-2.583,0.582c-5.208-1.016-11.147-10.941-9.842-17.037
	c1.53-7.194,2.288-15.338,5.713-21.134c12.565-21.234,29.58-30.51,49.754-14.889c6.457,4.997,10.023,16.455,13.209,25.781
	C301.536,771.055,299.387,773.787,296.341,775.869z"/>
<path d="M0-1.694l0.215,21.175c0.828-1.338,1.613-2.787,2.498-3.952c0.813-1.101,1.727-2.565,2.595-2.532
	c0.583,0.018,1.418,2.164,1.715,3.725c0.69,3.691,2.507,5.745,4.005,3.604c1.371-1.952,2.452-2.344,4.1-0.747
	c1.008,0.995,2.62-0.609,3.788-1.837c0.257-0.267-0.177-3.863-0.331-5.928c-0.124-1.83-0.291-3.643-0.445-5.457
	c0.229-0.11,0.457-0.203,0.685-0.314c0.156,0.49,0.368,0.932,0.481,1.469c1.537,7.46,2.36,8.314,5.693,6.099
	c0.372-0.235,0.854,0.222,1.266,0.396c0.981,0.413,1.976,1.314,2.915,1.158c1.851-0.342,2.744,1.536,2.807,5.367
	c0.039,2.302-0.122,4.729-0.454,6.873c-0.201,1.309-0.888,3.042-1.386,3.056c-0.669,0.046-1.42-1.264-2.045-2.243
	c-0.313-0.474-0.452-1.516-0.735-2.573c-2.084,3.59-1.069,8.37-0.705,11.808c0.488,4.841,0.994,8.169-1.723,7.769
	c0.181,2.633,0.347,4.936,0.513,7.238c-1.979,0.531-2.017,5.388-3.302,7.496c-1.427,2.348-2.77,4.977-4.182,7.338
	c-2.87,4.818-2.813,4.645-5.248-1.636c-3.355-8.616-6.912-16.76-12.215-18.964l0.144,14.126c1.275,2.636,2.608,5.13,3.812,7.94
	c3.33,7.78,3.75,18.408,1.271,27.183c-0.932,3.262-1.664,6.809-2.496,10.228c0.156,0.173,0.313,0.348,0.468,0.536
	c0.815-1.999,1.63-4,2.445-5.984c-0.752,6.036-2.382,10.053-4.963,13.532l0.264,25.195c4.246-2.782,4.246-2.782,6.862,5.739
	c0.212,0.709,0.396,1.514,0.68,2.035c1.701,3.047,3.431,6.016,5.147,9.015c0.157-0.41,0.314-0.803,0.486-1.197
	c-2.133-8.503-3.183-17.509-2.908-27.125c0.212-7.078,2.772-13.883,5.778-15.248c5.781-2.621,10.425,2.153,13.32,13.686
	c1.426,5.647,0.421,10.69-2.37,11.866c-2.478,1.035-4.409-1.382-5.98-5.454c-0.609-1.593-0.989-3.659-1.469-5.505
	c-0.343,0.599-0.7,1.196-1.042,1.81c0.097,1.357,0.051,2.855,0.305,4.068c2.819,13.866,7.72,25.497,15.771,19.825
	c1.695-1.196,3.131-0.498,4.649,1.871c1.532,2.399,3.294,4.059,4.968,5.94c1.094,1.231,2.216,2.292,3.75,3.854
	c-3.248,2.058-6.011,3.329-8.605,5.593c-1.966,1.698-3.746,1.963-5.85,1.232c-6.1-2.095-11.456,1.092-15.15,12.845
	c-0.644,2.096-0.821,4.965-1.21,7.486c0.242,0.222,0.498,0.458,0.739,0.679c0.386-0.945,0.8-1.81,1.144-2.818
	c1.459-4.364,3.468-5.936,5.859-5.757c1.65,0.115,3.17,1.443,3.561,5.022c0.308,2.76,0.23,6.528-0.401,8.828
	c-2.751,10.052-11.636,12.837-15.962,5.434c-4.793-8.21-5.093-22.307-0.649-32.59c0.586-1.355,1.314-2.394,1.985-3.575
	c-0.184-0.442-0.354-0.869-0.524-1.311c-2.764,1.902-5.274,5.049-7.134,9.948c-1.645,4.269-3.225,5.306-5.354,2.116l0.274,27.229
	c1.03,4.938,2.173,9.796,3.074,14.86c1.465,8.139,0.308,17.753-2.677,23.453l0.227,22.168c3.271-5.873,6.568-11.636,9.767-17.667
	c1.029-1.922,1.787-4.064,3.219-1.506c3.73,6.646,7.574,12.993,11.218,19.875c4.196,7.926,8.25,16.496,9.634,28.891
	c0.559,4.952,0.833,11.259-0.059,15.562c-3.518,17.05-3.523,34.519-1.893,52.607c0.208,2.364-0.054,5.234-0.484,7.471
	c-0.79,4.114-1.937,7.865-2.741,11.961c-0.229,1.15,0.219,4.353,0.362,4.353c3.542,0.213,7.294,2.713,10.519-1.726
	c2.896-3.983,5.6-4.513,8.541-1.856c0.454,0.396,0.909,0.885,1.377,1.455c1.448,1.752,3.282,2.482,4.933,2.487
	c1.423,0.003,2.807-1.918,4.259-2.576c6.51-2.948,11.191-11.215,14.475-23.615c0.057-0.237,0.128-0.473,0.186-0.71
	c-0.025-1.562,0.276-3.073,0.96-3.908c1.004-4.223,1.076-4.6,2.369-3.21c0.944-2.646,1.492-6.571,1.882-9.251
	c0.519-3.624,0.825-7.219,0.988-10.876c-0.127-0.126-0.241-0.284-0.34-0.505c-0.312-0.695-0.081-2.602-0.104-5.313
	c0.213,0.458,0.411,0.867,0.595,1.247c0.017-0.851,0.032-1.719,0.048-2.585c0.086-7.789,1.844-19.5-0.562-26.252
	c-2.732-7.717-3.127-16.358-4.875-25.065c-0.634-3.139-0.202-6.212,1.266-7.407c2.766-2.233,5.081,0.138,6.979,4.494
	c-2.181-12.618-3.95-25.44-4.607-38.749c-0.932-18.701-0.84-37.146,0.135-55.718c0.931-17.971,2.204-36.241,4.087-53.769
	c1.535-14.171,3.896-27.787,6.652-41.009c-0.743,1.858-1.799,3.637-2.525,3.353c-1.023-0.397-2.198-3.71-2.663-6.313
	c-0.549-3.187-0.555-6.954-0.563-10.454c0.002-1.356,0.532-3.293,1.074-3.861c0.798-0.833,1.823-0.689,2.819-0.987
	c0.233,4.621,0.425,8.643,0.631,12.662c0.198,0.095,0.398,0.207,0.597,0.317c0.504-3.356,1.75-7.327,1.313-9.898
	c-0.534-3.075-0.132-4.951,0.552-5.769c1.883-2.22,3.554-5.464,5.436-7.713c1.32-5.279,2.667-10.509,4-15.693
	c2.035-7.846,4.398-15.188,6.986-22.167c-0.143,0.235-0.271,0.472-0.414,0.693c-0.471,0.676-1.268,0.234-1.921,0.311
	c-0.022-3.153-0.584-7.049,0.031-9.286c0.917-3.326,2.334-0.452,3.427,1.238c0.341,0.536,0.652,1.185,0.907,1.736
	c1.63-4.111,3.317-8.096,5.061-12.001C77.192-1.386,38.589-1.54,0-1.694z M10.464,17.36c-0.369-0.237-0.739-0.491-1.109-0.744
	c0.216-1.371,0.39-2.773,0.691-4.034c0.043-0.189,0.639,0.27,0.967,0.429C10.84,14.461,10.652,15.91,10.464,17.36z M73.61,211.593
	c1.435,1.059,1.943,3.756,0.555,7.663c0.084-6.447-1.928-3.394-3.235-4.626C70.954,209.269,72.772,210.975,73.61,211.593z
	 M68.208,98.157c0.841-0.503,2.475,0.589,2.842,2.055c0.522,2.083,0.573,5.52,0.184,7.806c-0.605,3.608-1.636,6.934-2.723,9.958
	c-0.615,1.733-1.629,3.481-2.569,3.762c-1.125,0.329-2.104-1.202-0.973-4.763c-1.749-0.777-2.684-2.531-2.222-6.375
	C63.529,104.2,65.402,99.853,68.208,98.157z M40.16,10.21c0.625,0.333,1.379,0.113,1.891,0.823c2.512,3.491,4.193,2.358,5.372-3.786
	c0.115-0.599,0.542-0.882,1.013-1.607c0.645,5.221-0.215,8.876-2.167,10.354c-3.192,2.42-6.729-0.521-8.083-7.161
	C38.938,9.372,39.535,9.877,40.16,10.21z M39.172,117.355c-1.27,1.81-2.365,1.066-3.326-1.616c-1.19-3.299-2.407-6.55-3.653-9.722
	c-3.116-7.875-7.133-12.503-11.409-15.998c-1.79-1.455-3.023-4.169-2.916-8.032c0.047-2.144,1.218-4.458,2.131-6.049
	c3.185-5.589,6.425-11.068,9.75-16.232c1.998-3.085,4.222-5.477,6.49-8.357c0.294,2.225,0.491,3.581,0.674,4.938l0.796,0.316
	c0.479-4.838,1.127-9.646,1.422-14.548c0.514-8.354,0.629-8.828,4.315-9.37c6.775-0.993,10.259-7.718,11.682-22.583
	c0.175-1.733,0.335-3.467,0.466-4.917c0.937,1.39,1.702,2.542,2.483,3.694c0.245-1.449,0.49-2.915,0.719-4.222
	c1.439-1.085,2.95-2.201,4.446-3.349c1.055-0.802,1.679-0.375,1.844,2.527c0.855,14.412,1.184,28.759-0.011,43.042
	c-1.019,12.107-2.805,23.485-5.913,33.647c-0.329,1.119-1.243,2.803-1.356,2.598c-1.604-2.685-1.44,0.911-1.855,2.423
	c-1.232,4.396-2.054,10.007-3.782,12.952C48.074,105.472,43.552,111.184,39.172,117.355z M44.917,149.138
	c-2.494-5.635-2.336-5.981-0.248-11.889c0.186-0.504,0.357-1.055,0.487-1.655c2.183-10.117,6.98-11.729,10.734-17.506
	c0.422,2.934,0.458,5.976,1.055,6.781c2.711,3.585,1.532,9.559,2.136,13.943c4.829-2.511,1.792,7.525,3.267,10.051
	c2.365-0.783,3.439,2.594,2.503,8.346c-0.894-1.358-1.745-2.654-2.653-4.012c-0.727,0.788-1.468,1.59-2.709,2.943
	c1.507,0.775,2.501,1.298,3.967,2.058c-0.715,1.781-1.132,3.704-1.816,4.38c-2.238,2.248-2.426-3.821-3.859-5.984
	c-0.808,5.831-0.621,12.012-2.848,15.823c0.947-4.002-2.571-9.515,1.034-12.468c-0.113-0.411-0.226-0.837-0.354-1.248
	c-0.754,0.267-1.508,0.518-2.263,0.814c-0.684,0.251-1.583,1.337-1.994,0.721C49.128,156.795,46.815,153.415,44.917,149.138z
	 M42.849,181.012c1.6-3.086,3.298-5.888,5.226-9.258c0.212,8.373,2.254,3.885,3.407,4.108c1.982,5.491,3.766,10.43,5.563,15.385
	l-3.273-0.008c1.106,2.713,1.856,4.45,2.55,6.28c0.34,0.932,0.579,2.068,0.863,3.093c-0.584,0.361-1.155,1.069-1.738,0.989
	c-0.555-0.08-1.108-0.933-1.662-1.486c-2.613-2.592-5.241-5.105-7.825-7.838c-1.023-1.058-1.945-2.559-2.896-3.917
	C41.488,186.07,41.607,183.405,42.849,181.012z M47.534,357.511c-3.494-10.997-3.186-23.31-0.901-35.098
	c1.251-6.462,4.188-9.624,7.118-8.686c2.56,0.81,4.16,4.802,4.957,12.373c0.712,6.733-0.562,10.704-3.651,11.342
	c-0.753,0.156-1.509,0.234-2.576,0.404c1.356,4.86,3.091,5.92,4.898,5.419c2.762-0.733,5.285-2.871,6.365-9.302
	c1.727-10.244,0.949-19.879-2.195-28.399c-2.859-7.718-6.596-10.659-10.896-8.666c-1.709,0.784-2.276-0.59-2.553-4.137
	c-0.418-5.142-0.976-10.234-1.622-15.267c-0.167-1.214-0.92-2.051-1.402-3.078c-0.045,1.341-0.147,2.68-0.136,4.021
	c0.008,3.28,0.059,6.542,0.096,9.823c-0.343,0.141-0.67,0.282-0.998,0.422c-4.506-17.07-12.218-24.907-19.229-34.762
	c-1.347-1.895-2.639-3.979-4.001-5.812c-1.476-1.989-1.571-4.354-0.91-7.666c0.92-4.616,2.926-4.833,4.636-5.869
	c5.726-3.423,10.506-9.908,14.083-20.446c1.073-3.151,2.312-3.779,3.917-2.135c2.471,2.543,5.057,4.615,7.413,7.6
	c2.399,3.049,4.669,6.697,7.138,10.439l0.27,0.3c0.114,0.157,0.326,0.458,0.454,0.6c0.028,0.032,0.043,0.063,0.057,0.078
	c0.114,0.207,0.228,0.38,0.341,0.664c0.212,0.536,0.367,1.184,0.508,1.656c0.143,0.205,0.298,0.427,0.44,0.664
	c0.156,0.284,0.312,0.599,0.468,0.915c0.099-0.046,0.199-0.094,0.313-0.14l0.154,1.276c0.128,0.348,0.255,0.71,0.383,1.073
	c0.043,0.126,0.099,0.221,0.142,0.347c0.099,0.252,0.17,0.49,0.212,0.726c0.212,0.663,0.424,1.31,0.623,1.924
	c0.438,1.311,0.905,2.589,1.344,3.883c2.723,5.02,4.719,10.637,5.459,17.402c-1.042,1.512-2.396,3.37-2.329,4.993
	c0.191,4.321,1.868,5.633,4.816,4.079c-1.484,2.503-2.67,4.488-4.04,6.833c0.923,0.745,1.548,0.95,2.017,1.693
	c0.696,1.122,1.276,2.604,1.899,3.93c-0.471,1.118-1.056,2.094-1.4,3.402c-0.315,1.134-0.517,2.647-0.477,3.973
	c0.025,1.545,0.363,3.074,0.49,4.037c1.606,0.95,3.084,1.805,4.506,2.628c0.133,4.793,1.361,9.525-0.564,11.871
	c0.538,1.893,1.204,3.298,1.343,4.891c0.487,5.424-0.349,10.734-0.146,16.333c0.217,5.959-0.706,12.248-1.515,18.111
	c-1.646,12.089-5.261,20.452-10.899,22.173C56.356,372.053,50.999,368.399,47.534,357.511z M95.464,20.131
	c-0.964,5.657-2.031,12.592-4.057,15.614c-6.364,9.429-11.86,3.803-16.019-9.056c-1.131-3.518-1.421-8.454-1.954-12.807
	c-0.462-3.689,1.385-9.692,3.05-10.304c0.256-0.094,0.541,0.316,0.825,0.349c0.427,0.079,0.938,0.349,1.281-0.013
	c2.566-2.722,3.631-1.411,5.187,3.875c0.989,3.36,1.863,7.966,4.194,9.185c-0.246-5.755-0.231-5.676,2.234-7.674
	c0.441-0.36,0.673-1.968,1.114-2.282c0.741-0.519,1.866-1.272,2.277-0.483c0.525,1.011,0.506,3.469,0.87,6.624
	C95.446,14.423,96.155,16.064,95.464,20.131z"/>
<path d="M1271.597,295.473c0.36,1.15,0.786,2.513,1.136,4.059c1.102,4.849,2.965,11.165,0.807,15.488
	c-1.449,2.899-3.985,0.56-6.036,0.569c0.044-2.94-0.241-6.524,0.199-8.688c0.137-0.672,0.296-1.305,0.45-1.949
	c-4.536,12.08-9.307,23.195-14.408,32.781c-3.367,6.329-6.766,12.681-10.196,18.934c-1.466,8.646-3.567,16.379-5.015,25.024
	c-0.523,3.123-1.74,5.019-3.741,2.772c-1.679-1.884-4.258,4.006-6.437,6.456c0.069,0.883,0.138,1.766,0.205,2.646
	c2.617,0.734,5.232,1.47,8.238,2.313c-0.192,4.53-0.1,9.133-0.645,12.823c-0.362,2.448-1.626,4.984-2.507,5.046
	c-2.275,0.166-4.722,0.32-6.796-2.08c-1.691-1.951-3.854-7.109-4.114-11.75c-0.184-3.29,0.97-8.185,2.179-11.654
	c-8.592,13.195-17.446,24.521-26.662,32.152c-11.391,9.432-23.273,16.029-34.957,21.145c-12.074,5.283-24.07,6.597-36.24,3.257
	c-8.652-2.375-16.999-9.785-25.207-19.085c2.834,8.41,4.387,18.803,2.933,31.48c-0.771,6.733-2.774,8.806-4.811,6.097
	c-5.665-7.533-11.291-8.904-16.309-20.951c-4.401-10.57-12.011-2.059-17.079-1.268c-0.564,0.088-1.123,0.194-1.678,0.317
	c0.251,0.816,0.518,1.682,0.814,2.654c-1.77,0.001-3.003,1.114-3.463-0.268c-0.137-0.411-0.24-0.925-0.325-1.492
	c-2.38,0.937-4.714,2.445-7.077,5.027c-1.732,1.894-4.283,4.556-6.006,8.945c0.9,5.814,0.664,6.172-2.084,10.914
	c-0.54,3.164-1.522,4.57-2.546,4.559c-8.31,15.586-13.847,37.439-15.794,67.726c-0.422,6.586-1.665,12.961-1.66,19.433
	c0.004,7.468,0.482,15.765,1.617,22.243c2.739,15.6,2.739,29.721-0.24,45.088c-2.877,14.849-1.249,31.758-1.11,47.823
	c0.006,0.639,2.085,2.527,2.839,1.439c2.664-3.847,5.093-9.269,7.768-13.019c1.461-2.049,3.322-3.417,4.857-2.564
	c11.777,6.539,23.129,5.706,34.215-11.098c2.794-4.229,6.895-3.279,10.123-0.992c8.061,5.705,13.638,23.667,18.803,42.338
	c4.481,16.207,8.612,33.354,12.944,49.977c1.666,6.395,0.275,9.96-0.972,14.68c-3.922,14.818-7.665,30.085-11.477,45.181
	l14.426-0.017c3.7-13.79,9.95-19.516,15.247-13.257c3.286,3.882,6.449,8.78,9.668,13.224l17.705-0.02
	c-2.077-9.533-1.41-16.761,1.37-24.38c3.176-8.701,5.228-20.247,6.456-32.859c-0.286-0.777-0.57-1.547-0.854-2.326
	c-0.768,3.072-1.439,6.446-2.319,9.165c-6.685,20.642-15.858,19.975-21.2-1.415c-4.821-19.286-3.022-59.709,3.509-72.698
	c1.495-2.972,3.943-3.51,5.743-2.258c2.328,1.626,3.19,8.444,3.271,15.942c0.116,10.87-0.897,20.028-3.731,26.879
	c-0.658,1.593-1.227,3.546-1.836,5.333c0.146,1.104,0.294,2.21,0.442,3.313c1.636-1.904,3.507-2.796,4.866-5.871
	c7.642-17.285,9.699-41.772,8.325-69.383c-0.474-9.506-0.309-17.613,0.796-26.581c1.465-11.882,2.295-24.528,3.622-39.36
	c1.02,6.882,1.71,11.955,2.511,16.856c1.232,7.535,2.316,15.445,3.878,22.277c1.543,6.757,1.999,13.265,1.229,20.989
	c-3.684,36.857,3.895,58.517,12.914,70.668c0.792,1.062,1.763,0.832,2.649,1.207c0.392-1.621,0.782-3.239,1.174-4.86
	c-1.203-2.095-2.545-3.678-3.586-6.391c-2.651-6.93-4.222-15.551-3.552-26.863c0.753-12.724,4.027-17.555,7.705-11.362
	c7.508,12.64,10.618,33.479,8.927,59.813c-0.88,13.712-5.31,25.71-9.908,26.974c-6.254,1.722-12.108-2.61-17.645-11.875
	c-0.26,0.755-0.518,1.506-0.773,2.257c1.95,7.643,3.886,15.329,5.87,22.89c0.333,1.271,0.864,2.053,1.318,2.998
	c5.544,11.512,5.546,11.508,3.745,30.887l16.393-0.02c2.253-11.868,4.863-19.417,8.792-23.12c-1.296,3.78-2.592,7.565-3.888,11.342
	c0.114,0.703,0.229,1.402,0.343,2.099c2.222-3.896,4.524-7.406,6.648-11.767c5.701-11.708,12.615-10.269,17.686,4.462
	c1.824,5.306,3.453,11.271,5.171,16.939l9.179-0.014c-1.442-24.02-6.736-39.752-12.351-54.557
	c-4.083-10.774-4.2-10.483-1.076-23.767c1.543-6.552,3.245-12.739,4.771-19.329c1.373-5.948,4.529-6.354,4.871-15.377
	c1.497,0.647,2.992,1.291,4.7,2.03c-0.262-12.352,1.904-10.199,5.05-8.177c2.238,1.437,5.352,5.807,7.685-3.778
	c-0.69-1.264-1.368-1.835-1.676-3.209c-0.637-2.842-1.487-6.14-1.466-9.194c0.015-2.278,1.139-5.488,1.986-6.461
	c1.398-1.606,2.976-2.413,4.472-2.352c2.491,0.098,3.709,4.032,3.5,12.447c-0.107,4.303,0.485,8.773,0.749,13.176
	c0.115,1.915,0.42,4.053,0.264,5.743c-1.43,15.235-0.88,18.912,3.976,25.556c0.35,0.48,0.639,1.417,0.955,2.141
	c-0.065,1.035-0.131,2.068-0.198,3.104c-1.186-0.598-2.367-1.269-3.555-1.773c-1.339-0.569-3.684-2.421-3.858-1.227
	c-0.796,5.365-1.827,12.775-1.188,17.279c1.052,7.399,0.793,12.355-0.471,18.646c-1.396,6.951-0.056,15.087,2.342,18.061
	c1.026,1.267,2.424,4.947,2.435,7.58c0.02,3.967-0.936,8.144-1.646,11.928c-0.751,4.013-1.7,7.672-2.564,11.49l13.77-0.017
	c-0.165-175.187-0.329-350.396-0.495-527.815C1276.861,280.031,1274.269,287.899,1271.597,295.473z M1271.27,723.841
	c-0.817,1.417-1.732,2.295-2.615,3.354c-0.163-1.679-0.33-3.354-0.494-5.035c0.943-0.904,1.889-1.811,2.833-2.719
	C1271.096,720.969,1271.4,723.617,1271.27,723.841z M1141.53,585.834c1.073,7.187,0.668,12.863-1.385,17.885
	c-6.85,16.778-11.052,38.782-13.271,64.905c-0.666,7.847-0.807,16.949-3.81,21.359c-2.146,3.149-3.692,2.809-4.988-3.807
	c-1.193-6.087-2.553-11.863-3.786-17.884c-6.422-31.357-11.526-65.998-22.637-85.646c0.091-1.496,0.184-2.996,0.275-4.492
	c2.127-0.003,4.255,0.074,6.382-0.048c0.874-0.05,1.747-0.524,2.618-0.807c-0.663-2.144-1.218-5.557-2.007-6.211
	c-3.268-2.717-6.587-5.003-9.927-6.646c-2.307-1.135-3.206-3.603-2.694-11.389c1.286-19.666-0.638-36.484-5.654-49.055
	c-5.549-13.904-11.819-16.937-18.478-8.628c-4.177,5.209-9.684,23.169-6.044,29.301c3.152,5.309,0.373,16.051,3.543,21.994
	c0.104-4.828,0.152-8.281,0.254-11.723c0.414-14.053,2.99-20.001,7.374-17.084c4.925,3.28,7.524,10.342,8.058,21.876
	c0.611,13.263-1.441,26.749-5.638,32.752c-7.663,10.961-15.674,12.939-22.826-2.43c-7.089-15.224-9.474-39.337-8.374-64.844
	c1.105-25.681,6.535-42.475,14.397-50.532c3.813-3.907,7.899-8.45,11.773-7.741c3.649,0.669,7.097-3.386,10.623-1.435
	c1.042,0.575,1.951,3.519,3.189,5.896c1.517-8.879,4.596-3.509,7.712-3.123c0.543,6.41,1.103,13.045,1.716,20.286
	c0.628,0.541,1.625,1.994,2.633,2.082c0.862,0.071,1.841-0.911,2.58-2.352c0.847-1.653,1.485-4.329,2.213-6.56
	c0.863,2.797,1.83,5.364,2.554,8.472c0.481,2.068,0.622,4.912,1.109,9.083c1.519-6.387,2.812-11.836,4.435-18.665
	c-1.01,13.401-0.148,20.946,2.665,21.617c1.051,0.252,2.258-5.979,3.24-10.758c4.405,3.006,8.062,11.779,11.329,23.907
	c0.843,1.974,1.675,3.992,2.527,5.923c0.393,0.892,0.816,1.79,1.243,2.723c0.16,0.228,0.319,0.531,0.477,0.921
	c0.081,0.2,0.152,0.437,0.229,0.651c0.237,0.548,0.473,1.109,0.7,1.692l0.824,0.664c-0.03,0.471-0.061,0.94-0.093,1.411
	c0.214,0.67,0.419,1.351,0.598,2.079c0.158,0.636,0.3,1.304,0.438,1.98c0.31,0.621,0.727,1.262,1.082,2.219
	c0.182,0.49,0.306,0.981,0.436,1.584c-0.042-0.217-0.042-0.226,0.041,0.182c-0.014-0.069-0.027-0.117-0.041-0.182
	c0.129,0.678,0.682,3.478,0.427,2.237c0.08,0.382,0.139,0.781,0.199,1.181c2.439,11.038,4.814,21.127,6.8,31.906
	C1138.518,563.133,1139.876,574.741,1141.53,585.834z M1167.692,558.806c-2.192,8.864-4.012,16.726-6.01,24.119
	c-1.56,5.768-3.291,6.425-4.777-0.635c-0.891-4.229-1.868-8.366-2.559-12.902c-1.779-11.618-3.421-23.437-5.112-35.183
	c-0.354-2.479-0.912-4.94-0.967-7.491c-0.052-2.587,0.403-5.27,0.638-7.911c0.673,1.247,1.409,2.264,2.011,3.79
	c1.198,3.034,2.321,6.35,4.098,11.266l-0.01-14.844c3.219,7.884,6.432,15.759,10.011,24.524
	C1165.157,548.745,1162.248,558.219,1167.692,558.806z M1182.403,572.038c-2.787-8.391-4.987-18.756-7.223-28.729
	c-0.403-1.798,0.292-5.947,0.46-9.022c0.188-3.449,0.352-6.913,0.528-10.369c-0.271-0.511-0.542-1.021-0.813-1.53
	c-1.916,16.537-5.509,0.78-8.104,5.289c2.467-10.271,6.491-9.719,10.287-13.678c-1.408-6.386-5.362-6.949-3.907-17.221
	c0.443-3.124,1.693-5.137,2.853-8.457c0.496,6.598,0.837,11.12,1.345,17.877c0.874-5.691,1.395-9.09,1.906-12.423
	c-0.887-4.017-1.729-7.86-2.611-11.849c3.735-4.53,5.934,0.234,5.43,10.984c1.646,6.591,8.169-7.668,6.546,14.347
	c2.851,2.521,6.737-3.133,9.071,9.03c0.518,2.694,2.506,2.67,4.416,4.458c-3.753,17.308-4.798,39.195-11.375,49.548
	c-0.387,0.605-0.742,1.437-1.08,2.291C1186.296,582.333,1186.067,583.073,1182.403,572.038z M1275.728,549.256
	c-0.472,2.171-0.659,4.114-1.05,4.667c-3.989,5.633-4.729,13.345-2.449,24.581c0.464,2.289,0.318,5.713,0.542,8.545
	c0.216,2.775,0.544,5.466,0.896,8.9c-4.324-5.873-6.244-21.795-4.671-36.407C1269.955,550.642,1272.322,546.587,1275.728,549.256z
	 M1276.866,473.553c1.888,0.647,2.164,3.423,1.646,8.248c-0.74,6.894-1.467,13.796-2.163,20.36
	c-0.851,1.079-1.804,2.279-2.754,3.483c0.753,3.458,1.505,6.916,2.407,11.071c-0.938,0.687-2.063,1.507-3.188,2.34
	c-9.665,7.156-14.038,23.293-14.676,54.142c-0.343,16.743-0.647,17.264-6.076,19.988c-3.198,1.604-6.314,4.747-9.468,7.199
	l0.208,3.579c0.881,0.779,1.764,1.559,3.217,2.847c-1.877,10.424-3.428,20.589-5.431,29.801
	c-3.347,15.388-6.912,30.329-10.542,45.089c-1.026,4.17-2.526,9.621-3.926,9.96c-2.514,0.612-4.275-4.844-5.224-12.858
	c-2.284-19.284-5.307-37.298-10.425-51.039c-2.064-5.545-4.182-10.919-6.336-16.125c-1.746-4.226-2.231-9.154-1.057-15.054
	c4.008-20.125,7.722-40.948,12.248-59.891c1.91-7.994,5.554-11.982,8.418-17.756c0.983-1.978,3.322-1.388,1.564-8.578
	c-0.125-0.512,0.971-4.69,1.698-6.291c6.598-14.524,13.994-23.179,21.865-28.388
	C1258.166,469.535,1267.497,470.351,1276.866,473.553z M1214.181,451.081c0.956,1.603,1.67,8.966,1.34,12.802
	c-1.094,12.839-3.917,21.502-8.087,25.358c-2.492,2.301-3.639-1.867-4.142-9.748c-2.319,5.262-3.319,0.947-3.101-4.211
	c0.181-4.272,1.31-8.941,2.44-11.841c1.97-5.051,4.13-9.89,6.468-12.839C1210.584,448.729,1212.817,448.797,1214.181,451.081z
	 M1141.736,444.725c0.407,3.824,1.515,11.964-1.968,12.355c-0.809-5.883,1.182-15.167-3.014-14.5
	C1139.298,436.121,1141.05,438.271,1141.736,444.725z M1270.76,340.647c2.049,1.518,3.648,1.297,4.301,3.635
	c0.519,1.842,0.033,6.985-0.31,10.366c-0.204,2.007-1.243,3.156-1.477,5.174c-1.295,11.288-1.249,11.337-4.984,10.492
	c0.796,10.54,3.79,14.281,5.974,18.591c3.439,6.798,4.3,11.578,2.533,23.348c-0.242,1.609-0.059,3.888-0.012,5.842
	c0.028,1.268,0.295,2.574,0.233,3.75c-0.399,7.566-4.301,16.199-6.699,14.311c-2.836-2.23-6.044-3.318-8.328-8.288
	c-8.374-18.23-12.042-42.938-5.917-72.234c1.959-9.376,6.472-14.562,10.14-19.187C1268.86,333.117,1269.934,336.229,1270.76,340.647
	z"/>
<path d="M1031.611,13.565c0.568-0.635,1.242-1.385,2.003-1.996c2.394-1.937,5.513-5.217,7.632-1.378
	c1.422,2.572,0.257,7.059,0.252,10.693c-1.449-0.088-3.215,0.405-4.279-0.382c-0.33-0.245-0.643-0.531-0.957-0.805
	c5.928,8.075,11.379,16.564,16.075,25.63c3.103,5.989,6.212,12.026,9.275,18.123c4.251,2.629,8.051,6.376,12.3,8.966
	c1.536,0.939,2.463,3.101,1.349,6.639c-0.938,2.968,1.953,7.554,3.147,11.424c0.436-0.121,0.869-0.238,1.305-0.354
	c0.373-4.636,0.748-9.266,1.179-14.587c2.229,0.355,4.497,0.206,6.31,1.185c1.204,0.648,2.447,2.895,2.474,4.455
	c0.072,4.031,0.136,8.365-1.057,12.032c-0.969,2.992-3.517,6.806-5.806,7.252c-1.62,0.313-4.026-1.745-5.729-3.899
	c6.457,15.264,11.993,30.988,15.707,47.336c4.593,20.211,17.602,45.276,10.249,61.995c-15.203,34.57,3.133,42.663,1.432,64.21
	c-1.21,15.32-4.897,30.084-9.519,44.592c4.154-4.992,9.281-7.711,15.517-5.09c3.313,1.389,4.322,4.943,2.979,8.541
	c-3.736,10.013-6.867,16.554-10.395,28.823c-5.622,19.554-1.071,21.271-0.705,30.251c0.04,1,0.09,1.988,0.148,2.973
	c0.403-0.44,0.83-0.91,1.31-1.434c-0.009,3.134,0.534,5.324-0.147,6.133c-0.202,0.24-0.456,0.423-0.735,0.571
	c0.448,4.22,1.182,8.36,2.441,12.554c0.924,3.078,2.223,7.604,4.377,10.671c2.866-1.578,3.044-1.158,5.365,3.727
	c1.556,0.965,2.242,2.71,2.233,4.524c7.633,14.771,18.371,24.652,33.276,28.197c3.24,0.771,6.374,2.994,9.561,3.005
	c3.678,0.02,7.767-0.802,10.961-2.794c7.695-4.798,14.649-4.753,22.203,0.574c7.3,5.146,15.635,2.317,23.546,2.125
	c0.314-0.011,1.256-3.686,0.723-5.024c-1.882-4.732-4.54-9.054-6.375-13.803c-1.002-2.596-1.666-5.896-1.238-8.614
	c3.274-20.838,2.918-40.953-5.304-60.649c-2.07-4.961-1.583-12.222-0.441-17.935c2.847-14.26,11.72-24.081,20.94-33.17
	c8-7.888,16.465-15.148,24.671-22.769c3.156-2.928,4.906-0.457,7.225,1.769c7.279,6.995,14.779,13.677,22.195,20.478l0.059-25.555
	c-6.771-6.601-9.562-17.691-6.454-27.054c1.926-5.81,4.354-11.396,6.557-17.083l0.073-31.365c-4.702,3.649-8.259,2.441-11.999-2.509
	c-4.27-5.653-9.945-9.325-16.149-11.541c-0.386,0.502-0.765,1.001-1.149,1.503c1.508,1.371,3.166,2.571,4.5,4.138
	c10.135,11.908,9.763,28.158-0.796,37.551c-9.521,8.479-29.418,5.159-35.784-6.454c-1.455-2.655-1.708-6.994-1.083-10.18
	c0.811-4.119,4.174-5.626,7.865-5.742c5.354-0.17,9.857,1.655,13.221,6.699c0.779,1.171,1.738,2.184,2.615,3.271
	c0.545-0.257,1.09-0.515,1.634-0.775c-0.93-2.903-1.359-6.219-2.866-8.641c-8.478-13.592-20.527-17.316-34.131-14.973
	c-4.683,0.808-8.675,0.491-13.083-1.494c-5.846-2.635-12.068-4.147-19.367-6.547c3.393-1.783,5.894-2.988,8.312-4.39
	c3.718-2.161,7.616-4.054,10.99-6.8c3.335-2.711,6.541-3.497,10.341-2.105c18.133,6.644,28.836-6.711,34.862-22.649
	c0.528-1.4,0.419-3.116,0.608-4.689c-0.798-0.699-1.593-1.397-2.389-2.097c-1.038,2.128-1.823,4.499-3.164,6.332
	c-3.427,4.675-7.68,7.429-13.246,6.205c-6.262-1.377-8.625-7.192-5.56-13.688c6.26-13.257,16.538-18.698,29.497-15.616
	c6.748,1.604,12.637,9.488,13.238,17.639c0.817,11.086-1.343,21.441-5.932,31.219c0.369,0.462,0.738,0.922,1.107,1.378
	c3.771-3.431,7.566-6.834,11.3-10.324c0.627-0.586,1.015-1.526,1.482-2.328c5.695-9.784,5.693-9.786,15.229-6.531l0.068-29.041
	c-5.835-4.031-9.538-8.68-11.345-15.649c1.855,2.306,3.713,4.615,5.568,6.922c0.346-0.201,0.691-0.4,1.036-0.601
	c-1.909-3.948-3.626-8.037-5.765-11.813c-5.737-10.138-4.997-22.384,2.282-31.317c2.619-3.213,5.565-6.08,8.364-9.103l0.038-16.26
	c-11.835,2.474-19.608,11.804-26.928,21.701c-5.324,7.199-5.181,7.406-11.706,1.828c-3.222-2.751-6.26-5.791-9.496-8.511
	c-2.925-2.456-3.108-8.046-7.55-8.681c0.327-2.65,0.65-5.295,1.021-8.32c-6.083,0.423-5.012-3.407-4.003-8.973
	c0.718-3.96,2.884-9.462-1.824-13.625c-0.626,1.218-0.91,2.416-1.59,2.956c-1.401,1.121-3.029,2.613-4.533,2.569
	c-1.121-0.035-2.697-2.038-3.173-3.543c-0.784-2.479-1.174-5.279-1.135-7.929c0.059-4.411,2.001-6.555,6.145-6.157
	c2.12,0.204,4.322-0.832,6.492-1.287c0.942-0.196,1.997-0.729,2.831-0.445c7.494,2.582,9.308,1.619,12.602-6.962
	c0.24-0.616,0.701-1.125,1.06-1.683c0.51,0.119,1.019,0.239,1.527,0.361c-0.3,2.1-0.635,4.19-0.89,6.292
	c-0.285,2.371-1.21,6.515-0.622,6.834c2.637,1.424,6.282,3.276,8.503,2.156c3.649-1.835,6.087-1.364,9.182,0.896
	c3.414,2.496,7.429,0.149,8.903-4.09c0.63-1.816,2.449-4.276,3.746-4.287c1.952-0.024,4.006,1.684,5.864,2.954
	c1.974,1.346,3.771,3.039,5.648,4.583L1280,0.515c-86.272-0.279-172.555-0.559-259.928-0.845
	C1024.031,4.189,1027.893,8.81,1031.611,13.565z M1242.407,82.27c0.694,1.076,1.123,2.277,1.642,3.438
	c-0.828,0.209-1.653,0.421-2.481,0.632c-0.442-1.239-0.886-2.479-1.33-3.721C1240.992,82.491,1242.295,82.099,1242.407,82.27z
	 M1173.968,251.86c3.543-1.386,6.338-0.837,8.803,1.865c8.236,9.024,19.059,14.595,31.914,17.581
	c3.863,0.897,8.345,1.105,10.505,5.056c1.544,2.819,1.371,4.844-1.892,6.522c-3.002,1.547-5.853,3.31-8.823,4.908
	c-15.464,8.323-32.543,14.911-42.259,29.411c-0.736-0.122-1.474-0.25-2.211-0.374c0.006-2.786,0.052-5.575,0-8.361
	c-0.022-1.146-0.251-2.291-0.388-3.432c-1.056,0.86-2.74,1.577-3.065,2.609c-1.351,4.275-2.488,8.617-3.31,12.988
	c-0.567,3.02-1.786,4.19-5.618,3.497c-9.682-1.742-17.97,0.729-24.177,7.265c-6.87,7.229-8.387,15.438-4.32,24.184
	c2.552,5.49,8.227,7.339,14.408,8.006c4.08,0.442,7.907-0.443,10.847-4.576c-2.38-0.15-4.079-0.226-5.774-0.368
	c-6.917-0.584-9.839-3.977-8.386-9.712c1.635-6.442,5.12-9.829,10.802-10.493c6.534-0.764,13.168,1.966,16.108,7.48
	c5.37,10.073,6.315,20.575-1.278,29.902c-7.523,9.243-19.407,12.298-31.965,10.784c-12.642-1.525-20.894-8.688-24.831-19.012
	c-1.91-5.01-4.133-10.375-3.77-15.451c0.343-4.778,4.035-3.431-0.669-13.922c-0.547-1.22,1.741-2.545,2.917-4.162
	c-4.367-2.012-1.711-6.03-1.51-10.112c3.157-0.692,6.429-1.409,9.996-2.19c0.269-0.821,0.988-2.124,1.033-3.444
	c0.039-1.127-0.44-2.414-1.147-3.386c-0.812-1.113-2.127-1.959-3.223-2.918c1.381-1.124,2.65-2.382,4.181-3.322
	c1.021-0.625,2.423-0.8,4.479-1.427c-3.141-2.009-5.818-3.718-9.175-5.864c6.597,1.363,10.314,0.253,10.653-3.43
	c0.129-1.375-2.935-2.974-5.284-4.277c1.495-5.763,5.83-10.528,11.814-14.773c0.976-1.099,1.972-2.184,2.925-3.294
	c0.44-0.511,0.885-1.064,1.347-1.623c0.113-0.208,0.263-0.417,0.455-0.621c0.098-0.106,0.216-0.198,0.322-0.296
	c0.269-0.311,0.547-0.617,0.834-0.915l0.331-1.079c0.231,0.042,0.464,0.082,0.693,0.126c0.331-0.279,0.666-0.545,1.025-0.777
	c0.313-0.205,0.644-0.389,0.979-0.567c0.305-0.405,0.623-0.949,1.096-1.411c0.241-0.237,0.482-0.399,0.782-0.566
	c-0.107,0.054-0.111,0.054,0.089-0.054c-0.034,0.018-0.058,0.037-0.089,0.054c0.333-0.167,1.714-0.882,1.104-0.553
	c0.187-0.103,0.385-0.178,0.581-0.257c5.445-3.165,10.423-6.247,15.737-8.817C1162.777,255.74,1168.501,253.996,1173.968,251.86z
	 M1160.755,217.502c4.357,2.899,8.221,5.307,11.854,7.944c2.835,2.061,3.15,4.332-0.33,6.258c-2.085,1.154-4.126,2.422-6.362,3.315
	c-5.728,2.297-11.554,4.414-17.346,6.595c-1.22,0.458-2.437,1.183-3.692,1.244c-1.273,0.063-2.593-0.542-3.894-0.858
	c0.618-0.877,1.121-1.84,1.875-2.623c1.498-1.562,3.135-3.024,5.563-5.338l-7.312-0.03c3.894-4.195,7.786-8.381,12.114-13.043
	C1155.789,220.795,1160.446,224.636,1160.755,217.502z M1167.324,198.265c-4.143,3.629-9.254,6.479-14.173,9.38
	c-0.889,0.525-2.93-0.4-4.442-0.629c-1.699-0.257-3.404-0.482-5.104-0.723c-0.252,0.354-0.505,0.708-0.756,1.063
	c8.136,2.559,0.363,7.22,2.572,10.632c-5.046-3.26-4.761-8.532-6.695-13.517c-3.152,1.825-3.442,7.004-8.495,5.069
	c-1.538-0.59-2.522-2.233-4.154-3.762c3.249-0.632,5.479-1.064,8.808-1.711c-2.799-1.162-4.47-1.854-6.111-2.532
	c-1.98,1.148-3.876,2.242-5.844,3.385c-2.218-4.909,0.137-7.774,5.429-7.08c3.253-2.138-3.746-10.725,7.089-8.537
	c1.254-3.727-1.518-8.836,4.48-11.86c1.33-0.669,1.325-3.273,2.211-5.772c8.51,4.968,19.285,6.4,24.36,15.048
	c0.296,0.509,0.704,0.977,1.122,1.421C1172.408,193.196,1172.772,193.496,1167.324,198.265z M1156.448,75.921
	c1.067,0.624,2.023,0.875,2.295,1.388c2.757,5.244,6.554,6.237,12.094,3.281c1.13-0.6,2.815-0.401,4.21-0.683
	c1.367-0.276,2.696-0.699,4.387-1.148c-2.907,5.648-10.756,8.119-17.945,6.013C1157.108,83.489,1155.121,80.373,1156.448,75.921z
	 M1119.17,74.208c0.326-2.47,1.694-2.825,4.068-2.132c3.392,0.989,6.789,1.962,10.019,2.893c0.528,1.12,1.117,2.372,1.707,3.62
	c1.703-0.976,3.411-1.953,5.46-3.122c0.335,1.231,0.734,2.707,1.141,4.184c3.488,12.683,11.419,18.462,26.608,19.385
	c8.243,0.499,8.499,0.901,9.82,8.022c0.78,4.196,2.316,8.287,3.513,12.426l1.763-0.262c0.385-1.151,0.772-2.304,1.412-4.207
	c5.127,2.489,10.126,4.551,14.655,7.203c7.567,4.431,14.912,9.146,22.168,13.943c2.049,1.358,4.727,3.34,4.89,5.174
	c0.292,3.294-2.4,5.589-6.351,6.808c-9.506,2.937-18.387,6.843-25.174,13.51c-2.738,2.688-5.393,5.446-7.963,8.253
	c-2.088,2.277-4.517,2.898-7.417,1.342c-9.896-5.31-20.139-10.237-29.448-16.223c-3.931-2.524-5.884-7.312-8.714-11.083
	c-0.971-1.292-0.672-4.356-4.218-2.074c-0.254,0.161-2.309-1.285-3.094-2.243c-7.128-8.688-11.362-18.405-13.899-28.732
	C1117.124,98.697,1117.562,86.474,1119.17,74.208z M1107.873,156.276c0.794-1.25,4.424-2.163,6.311-1.72
	c6.319,1.473,10.575,5.197,12.458,10.671c1.125,3.273-0.932,4.761-4.814,5.398c2.582,3.056,0.454,4.352-2.084,4.051
	c-2.104-0.25-4.399-1.741-5.823-3.233c-2.481-2.594-4.855-5.439-6.299-8.512C1106.702,160.983,1106.745,158.055,1107.873,156.276z
	 M1104.479,251.176c1.883-0.52,5.897-1.947,6.077,2.617c-2.9,1.041-7.464-1.594-7.153,3.907
	C1100.233,254.35,1101.298,252.059,1104.479,251.176z M1053.697,81.82c0.754-2.68,0.652-4.778,1.805-5.624
	c0.91-0.674,3.44-0.023,5.105,0.434c0.987,0.273,1.549,1.64,2.541,1.95c5.554,1.732,5.58,1.67,5.149,6.563
	c5.194-1.013,7.047-4.926,9.178-7.773c3.36-4.489,5.719-5.601,11.507-3.252c0.792,0.322,1.915,0.089,2.877,0.033
	c0.624-0.033,1.27-0.379,1.847-0.296c3.727,0.547,7.962,5.684,7.024,8.821c-1.108,3.709-1.656,7.911-4.113,10.887
	c-9.008,10.92-21.188,15.652-35.593,7.542c-4.611-2.595-7.147-8.523-9.411-13.343C1049.982,84.287,1051.521,82.89,1053.697,81.82z"
	/>
</svg>
